<mxfile host="8c300b85-0b90-401c-bafb-0d738eccb876" modified="2020-10-01T11:38:36.447Z" agent="5.0 (Windows NT 10.0; Win64; x64) AppleWebKit/537.36 (KHTML, like Gecko) Code/1.49.2 Chrome/83.0.4103.122 Electron/9.2.1 Safari/537.36" etag="zUjBZTu2amDBNCJBt_WX" version="13.1.3">
    <diagram id="6hGFLwfOUW9BJ-s0fimq" name="Page-1">
        <mxGraphModel dx="1675" dy="958" grid="1" gridSize="10" guides="1" tooltips="1" connect="1" arrows="1" fold="1" page="1" pageScale="1" pageWidth="827" pageHeight="1169" math="0" shadow="0">
            <root>
                <mxCell id="0"/>
                <mxCell id="1" parent="0"/>
                <mxCell id="15" value="" style="shape=flexArrow;endArrow=classic;html=1;entryX=0;entryY=0.5;entryDx=0;entryDy=0;exitX=0.875;exitY=0.5;exitDx=0;exitDy=0;exitPerimeter=0;" parent="1" source="5" target="12" edge="1">
                    <mxGeometry width="50" height="50" relative="1" as="geometry">
                        <mxPoint x="390" y="280" as="sourcePoint"/>
                        <mxPoint x="610" y="360" as="targetPoint"/>
                    </mxGeometry>
                </mxCell>
                <mxCell id="5" value="BIG CODE" style="ellipse;shape=cloud;whiteSpace=wrap;html=1;" parent="1" vertex="1">
                    <mxGeometry x="40" y="40" width="316" height="220" as="geometry"/>
                </mxCell>
                <mxCell id="6" value="&lt;span&gt;Bitbucket&lt;/span&gt;" style="text;html=1;align=center;verticalAlign=middle;resizable=0;points=[];autosize=1;" parent="1" vertex="1">
                    <mxGeometry x="146" y="70" width="60" height="20" as="geometry"/>
                </mxCell>
                <mxCell id="7" value="&lt;span&gt;Gitee&lt;/span&gt;" style="text;html=1;align=center;verticalAlign=middle;resizable=0;points=[];autosize=1;" parent="1" vertex="1">
                    <mxGeometry x="286" y="180" width="40" height="20" as="geometry"/>
                </mxCell>
                <mxCell id="8" value="&lt;span&gt;GitHub&lt;/span&gt;" style="text;html=1;align=center;verticalAlign=middle;resizable=0;points=[];autosize=1;" parent="1" vertex="1">
                    <mxGeometry x="196" y="210" width="50" height="20" as="geometry"/>
                </mxCell>
                <mxCell id="9" value="&lt;span&gt;GitLab&lt;/span&gt;" style="text;html=1;align=center;verticalAlign=middle;resizable=0;points=[];autosize=1;" parent="1" vertex="1">
                    <mxGeometry x="86" y="180" width="50" height="20" as="geometry"/>
                </mxCell>
                <mxCell id="10" value="&lt;span&gt;Gerrit&lt;/span&gt;" style="text;html=1;align=center;verticalAlign=middle;resizable=0;points=[];autosize=1;" parent="1" vertex="1">
                    <mxGeometry x="256" y="100" width="50" height="20" as="geometry"/>
                </mxCell>
                <mxCell id="11" value="&lt;span&gt;...&lt;/span&gt;" style="text;html=1;align=center;verticalAlign=middle;resizable=0;points=[];autosize=1;" parent="1" vertex="1">
                    <mxGeometry x="86" y="120" width="30" height="20" as="geometry"/>
                </mxCell>
                <mxCell id="12" value="LANGCRAWLER" style="rounded=1;whiteSpace=wrap;html=1;" parent="1" vertex="1">
                    <mxGeometry x="390" y="120" width="120" height="60" as="geometry"/>
                </mxCell>
                <mxCell id="13" value="&lt;span&gt;POSTGRE&lt;br&gt;SQL&lt;/span&gt;" style="shape=cylinder;whiteSpace=wrap;html=1;boundedLbl=1;backgroundOutline=1;" parent="1" vertex="1">
                    <mxGeometry x="590" y="40" width="80" height="80" as="geometry"/>
                </mxCell>
                <mxCell id="18" value="" style="edgeStyle=elbowEdgeStyle;elbow=horizontal;endArrow=classic;html=1;exitX=1;exitY=0.5;exitDx=0;exitDy=0;entryX=-0.012;entryY=0.506;entryDx=0;entryDy=0;entryPerimeter=0;" parent="1" source="12" edge="1">
                    <mxGeometry width="50" height="50" relative="1" as="geometry">
                        <mxPoint x="480" y="430" as="sourcePoint"/>
                        <mxPoint x="589.0400000000002" y="216.08834000000002" as="targetPoint"/>
                    </mxGeometry>
                </mxCell>
                <mxCell id="23" value="LANGFETCHER" style="rounded=1;whiteSpace=wrap;html=1;" parent="1" vertex="1">
                    <mxGeometry x="730" y="200" width="120" height="60" as="geometry"/>
                </mxCell>
                <mxCell id="25" value="" style="edgeStyle=elbowEdgeStyle;elbow=horizontal;endArrow=classic;html=1;entryX=0;entryY=0.5;entryDx=0;entryDy=0;" parent="1" target="13" edge="1">
                    <mxGeometry width="50" height="50" relative="1" as="geometry">
                        <mxPoint x="510" y="150" as="sourcePoint"/>
                        <mxPoint x="560" y="40" as="targetPoint"/>
                    </mxGeometry>
                </mxCell>
                <mxCell id="26" value="REDIS" style="shape=cube;whiteSpace=wrap;html=1;boundedLbl=1;backgroundOutline=1;darkOpacity=0.05;darkOpacity2=0.1;" parent="1" vertex="1">
                    <mxGeometry x="590" y="190" width="80" height="60" as="geometry"/>
                </mxCell>
                <mxCell id="29" value="STORAGE" style="shape=cylinder;whiteSpace=wrap;html=1;boundedLbl=1;backgroundOutline=1;" parent="1" vertex="1">
                    <mxGeometry x="910" y="190" width="80" height="80" as="geometry"/>
                </mxCell>
                <mxCell id="30" value="" style="shape=flexArrow;endArrow=classic;html=1;exitX=1.001;exitY=0.581;exitDx=0;exitDy=0;exitPerimeter=0;" parent="1" source="23" edge="1">
                    <mxGeometry width="50" height="50" relative="1" as="geometry">
                        <mxPoint x="870" y="340" as="sourcePoint"/>
                        <mxPoint x="910" y="235" as="targetPoint"/>
                    </mxGeometry>
                </mxCell>
                <mxCell id="31" value="" style="shape=flexArrow;endArrow=classic;html=1;entryX=0;entryY=0.5;entryDx=0;entryDy=0;exitX=0;exitY=0;exitDx=80;exitDy=40;exitPerimeter=0;" edge="1" parent="1" source="26" target="23">
                    <mxGeometry width="50" height="50" relative="1" as="geometry">
                        <mxPoint x="670" y="310" as="sourcePoint"/>
                        <mxPoint x="720" y="260" as="targetPoint"/>
                    </mxGeometry>
                </mxCell>
            </root>
        </mxGraphModel>
    </diagram>
</mxfile>